<?xml version="1.0" encoding="UTF-8"?><svg id="b" xmlns="http://www.w3.org/2000/svg" xmlns:xlink="http://www.w3.org/1999/xlink" viewBox="0 0 500 500"><defs><style>.g,.h{fill:#fff;}.h,.i,.j{fill-rule:evenodd;}.k,.i{fill:#df9130;}.l{fill:url(#f);}.m{clip-path:url(#d);}.n{mask:url(#e);}.o{opacity:.1;}.p{fill:none;}</style><clipPath id="d"><rect class="p" width="500" height="500"/></clipPath><linearGradient id="f" x1="110.94" y1="116.87" x2="466.79" y2="457.54" gradientUnits="userSpaceOnUse"><stop offset="0" stop-color="#fff"/><stop offset=".09" stop-color="#e0e0e0"/><stop offset=".35" stop-color="#919191"/><stop offset=".58" stop-color="#535353"/><stop offset=".77" stop-color="#262626"/><stop offset=".91" stop-color="#0a0a0a"/><stop offset="1" stop-color="#000"/></linearGradient><mask id="e" width="500" height="500" maskUnits="userSpaceOnUse"><rect class="l" width="500" height="500"/></mask></defs><g id="c"><g class="m"><g class="n"><g class="o"><path d="M444.64,484.86c-97.54,0-176.89-79.35-176.89-176.89s79.35-176.89,176.89-176.89,176.89,79.35,176.89,176.89-79.35,176.89-176.89,176.89Zm0-316.78c-77.13,0-139.89,62.75-139.89,139.89s62.75,139.89,139.89,139.89,139.89-62.75,139.89-139.89-62.75-139.89-139.89-139.89Z"/><g><path class="i" d="M32.3,211.15l63.17-11.7,51.34-9.51-49.53,3.49,25.34-84.39,18.93-.7L244.57-6.5h12.24l38.08,28.12,43.52-9.71,7.71,11.76-5.34,19.11,71.29,80.57,9.3,3.21c11.77,13.65,21.88,24.44,33.22,38.54,3.69,4.58,3.1,8.81,.29,13.49l-7.8,13.02,6.28,5.82c19.33,17.93,46.91,60.67,53.17,88.63l34.34,153.33h-10.09l-64.71,23.81-21.69-23.81-1.98-17.09,3.3-11.15-26.36-105.52-142.86-140.9,4.15-4.99,5.57-6.71,15.3-18.42-28.72,26.48-65.83,60.68v109.99l11.57,10.39v53.24l-5.78,2.7,4.51,13.98-11.09,.7-14.12-14.27,2.87,14.98-12.99,.82-11.9-15.66,3.29,16.2-11.36,.71-13.24-15.03,4.45,15.58-11.27,.71-13.06-16.43,3.67,17.02-10.26,.64-13.89-14.71,3.29,15.37-9.4,.59c-37.37-50.39-60.47-76.58-90.24-136.76-11.35-22.95-4.25-66.84,20.27-71.38"/><path class="j" d="M32.3,211.15l63.17-11.7,51.34-9.51-49.53,3.49h0l25.34-84.39,18.93-.7L244.57-6.5h12.24l38.08,28.12,43.52-9.71,7.71,11.76-5.34,19.11,71.29,80.57,9.3,3.21c11.77,13.65,21.88,24.44,33.22,38.54,3.69,4.58,3.1,8.81,.29,13.49l-7.79,13.02,6.27,5.82c19.33,17.93,46.91,60.67,53.17,88.63l34.34,153.33h-10.09l-31.76-146.69c-6.55-30.26-31.11-66.03-50.55-83.87l-122.84-112.73-8.59,26.06,98.6,90.52c24.69,22.67,50.87,54.89,58.04,88.93l29,137.78-36.6,23.81-21.69-23.81-1.98-17.09,3.3-11.15-26.36-105.52-142.86-140.9,4.15-4.99,143.85,138.71-138.27-145.43,15.3-18.42-28.72,26.48-65.83,60.68v109.99l11.57,10.39v53.24l-5.78,2.7,4.51,13.98-11.09,.7-14.13-14.27,2.87,14.98-12.99,.82-11.9-15.66,3.29,16.2-11.36,.71-13.24-15.03,4.45,15.58-11.27,.71-13.06-16.43,3.67,17.02-10.26,.64-13.89-14.71,3.29,15.37-9.4,.59c-37.37-50.39-60.47-76.58-90.24-136.76-11.35-22.95-4.25-66.84,20.27-71.38M224.55,23.99l-77.95,84.17,3.59-.13L224.02,28.3l12.98,5.62-12.45-9.93Zm-42.26,165.84l5.61,4.03L310.9,45.09,182.29,189.83Zm-8.11-79.94l-11.16-2.34-22.09,73.54,14.32-9.8,28.91-45.71-9.98-15.69ZM23.63,269.29c.44-14.63,4.57-27.04,12.78-36.99l62.47-21.97-69.19,14.39c-7.98,11.22-11.03,31.02-6.06,44.57M246.72-3.21l10.17,3.95,33.42,25.67,2.93-2.73L257.73-2.08l-11.01-1.13Zm-68.36,190.22l28.65,20.57,104.21-100.2,25.03-85.34-18.16,5.91L178.36,187.01Zm-22.77,1.31c-50.92,27.65-13.07,107.49,55.45,197.72l-.07-36.91-12.73-12.1v-124.37l-14.45-8.25-11.84,98.36,4.97-102.28-21.33-12.17Zm176.37-113.99l-2.33,8.33,69.5,64.48,42.88,39.5-110.06-112.3Zm-154.03,32.68l11.76,18.23-30.14,47.92,101.95-118.01-21.47-16.65-62.11,68.51Z"/></g><path d="M544.82,405.5c-25.43,26.11-60.94,42.35-100.17,42.35-12.26,0-24.15-1.59-35.48-4.57-.34,1.55-.66,3.1-.93,4.65-1.87,10.84-2.06,21.78-1.81,32.75,12.32,2.72,25.1,4.17,38.23,4.17,50.11,0,95.41-20.95,127.63-54.54-7.76-9.73-16.7-18.44-27.45-24.82Z"/></g></g></g><g><g><path d="M302.16,300.51c-38.98,0-70.7-31.72-70.7-70.7s31.72-70.7,70.7-70.7,70.7,31.72,70.7,70.7-31.72,70.7-70.7,70.7Zm0-126.61c-30.83,0-55.91,25.08-55.91,55.91s25.08,55.91,55.91,55.91,55.91-25.08,55.91-55.91-25.08-55.91-55.91-55.91Z"/><g><path class="i" d="M137.35,191.12l25.25-4.68,20.52-3.8-19.8,1.39,10.13-33.73,7.56-.28,41.18-45.9h4.89l15.22,11.24,17.39-3.88,3.08,4.7-2.14,7.64,28.49,32.2,3.72,1.28c4.7,5.46,8.74,9.77,13.28,15.4,1.47,1.83,1.24,3.52,.12,5.39l-3.12,5.2,2.51,2.33c7.73,7.17,18.75,24.25,21.25,35.42l13.73,61.28h-4.03l-25.86,9.52-8.67-9.52-.79-6.83,1.32-4.46-10.53-42.18-57.1-56.31,1.66-2,2.23-2.68,6.12-7.36-11.48,10.58-26.31,24.25v43.96l4.62,4.15v21.28l-2.31,1.08,1.8,5.59-4.43,.28-5.65-5.7,1.15,5.99-5.19,.33-4.76-6.26,1.32,6.47-4.54,.29-5.29-6.01,1.78,6.23-4.5,.28-5.22-6.57,1.47,6.8-4.1,.26-5.55-5.88,1.31,6.14-3.76,.24c-14.93-20.14-24.17-30.61-36.07-54.66-4.54-9.17-1.7-26.71,8.1-28.53"/><path class="h" d="M297.36,182.72s17.04,17.98,22.65,38.78c5.6,20.8,13.1,59.05,13.1,59.05l4.75-3.25-11.75-53.25-4.25-12.75-10.96-16.25-13.54-12.33Z"/><polygon class="h" points="257.31 134.07 254.69 142.22 300.19 182.72 302.16 174.89 257.31 134.07"/><polygon class="h" points="222.36 106.56 223 104.74 227.28 105.12 242.67 116.31 240.36 118.62 222.36 106.56"/><polygon class="h" points="193.01 149.02 180.77 179.1 188.21 148.43 193.01 149.02"/><polygon class="g" points="225.16 118.56 213.86 115.53 179.86 152.61 185.61 152.61 201.1 137.43 216.48 120.43 225.16 118.56"/><path class="g" d="M197.3,184.87l51.4-60.12,8.61-10.19-8.61,2.42s-37.15,42.58-37.66,43.41c-.51,.83-18.03,21.37-18.03,21.37l4.29,3.11Z"/><path class="g" d="M186.63,181.99s-6.69,8.31-5.86,17.31c.84,9,10.95,38.17,28.02,61.71l-8.93-2.21-23.62-44.45-2.38-23.57,12.77-8.8Z"/><path class="j" d="M137.35,191.12l25.25-4.68,20.52-3.8-19.8,1.39h0l10.13-33.73,7.56-.28,41.18-45.9h4.89l15.22,11.24,17.39-3.88,3.08,4.7-2.14,7.64,28.49,32.2,3.72,1.28c4.7,5.46,8.74,9.77,13.28,15.4,1.47,1.83,1.24,3.52,.12,5.39l-3.11,5.2,2.51,2.33c7.73,7.17,18.75,24.25,21.25,35.42l13.73,61.28h-4.03l-12.69-58.63c-2.62-12.1-12.43-26.39-20.2-33.52l-49.1-45.06-3.43,10.42,39.41,36.18c9.87,9.06,20.33,21.94,23.2,35.54l11.59,55.07-14.63,9.52-8.67-9.52-.79-6.83,1.32-4.46-10.54-42.18-57.1-56.31,1.66-2,57.49,55.44-55.26-58.12,6.12-7.36-11.48,10.58-26.31,24.25v43.96l4.62,4.15v21.28l-2.31,1.08,1.8,5.59-4.43,.28-5.65-5.7,1.15,5.99-5.19,.33-4.76-6.26,1.32,6.47-4.54,.29-5.29-6.01,1.78,6.23-4.5,.28-5.22-6.57,1.47,6.8-4.1,.26-5.55-5.88,1.31,6.14-3.76,.24c-14.93-20.14-24.17-30.61-36.07-54.66-4.54-9.17-1.7-26.71,8.1-28.53m76.84-74.8l-31.15,33.64,1.43-.05,29.51-31.87,5.19,2.25-4.98-3.97Zm-16.89,66.28l2.24,1.61,49.16-59.46-51.4,57.85Zm-3.24-31.95l-4.46-.94-8.83,29.39,5.72-3.92,11.55-18.27-3.99-6.27Zm-60.17,63.71c.18-5.85,1.83-10.81,5.11-14.79l24.97-8.78-27.65,5.75c-3.19,4.48-4.41,12.4-2.42,17.81m89.16-108.91l4.07,1.58,13.36,10.26,1.17-1.09-14.2-10.3-4.4-.45Zm-27.32,76.03l11.45,8.22,41.65-40.05,10-34.11-7.26,2.36-55.85,63.57Zm-9.1,.52c-20.35,11.05-5.22,42.96,22.16,79.03l-.03-14.75-5.09-4.84v-49.71l-5.78-3.3-4.73,39.31,1.98-40.88-8.52-4.86Zm70.49-45.56l-.93,3.33,27.78,25.77,17.14,15.79-43.99-44.88Zm-61.56,13.06l4.7,7.29-12.05,19.15,40.75-47.17-8.58-6.66-24.82,27.38Z"/></g><path d="M342.2,268.79c-10.16,10.44-24.36,16.93-40.04,16.93-4.9,0-9.65-.64-14.18-1.82-.14,.62-.26,1.24-.37,1.86-.75,4.33-.82,8.71-.72,13.09,4.92,1.09,10.03,1.67,15.28,1.67,20.03,0,38.13-8.37,51.01-21.8-3.1-3.89-6.68-7.37-10.97-9.92Z"/></g><g><g><path d="M223.2,349.41l-2.75,4.35-1.48,14.62h-7.48l4.81-47.59h7.48l-2.1,20.73,11.89-20.73h7.48l-12.55,21.21,7.74,26.38h-7.68l-5.36-18.97Z"/><path d="M242.41,320.79h11.83c7.48,0,10.73,4.15,9.96,11.76l-2.43,24.07c-.77,7.62-4.86,11.76-12.34,11.76h-11.83l4.81-47.59Zm6.79,6.8l-3.44,33.99h4.22c2.38,0,3.93-1.22,4.27-4.62l2.5-24.75c.34-3.4-.96-4.62-3.34-4.62h-4.22Z"/><path d="M273.56,340.85h10.27l-.69,6.8h-10.27l-1.41,13.94h12.92l-.69,6.8h-20.4l4.81-47.59h20.4l-.69,6.8h-12.92l-1.34,13.26Z"/></g><g><path class="k" d="M98.4,382.7l-1.25,12.39c-.12,1.15,.35,1.56,1.15,1.56s1.35-.41,1.47-1.56l1.25-12.39h2.39l-1.24,12.23c-.26,2.57-1.69,4.04-4.17,4.04s-3.62-1.47-3.36-4.04l1.24-12.23h2.53Z"/><path class="k" d="M113.97,387.13l-1.18,11.64h-2.27l1.62-16.07h3.17l1.62,9.62,.97-9.62h2.25l-1.62,16.07h-2.59l-1.97-11.64Z"/><path class="k" d="M130.27,398.76h-2.55l-.14-2.91h-3.1l-.73,2.91h-2.32l4.2-16.07h3.7l.95,16.07Zm-5.25-5.1h2.43l-.4-8.13-2.04,8.13Zm5.49-14.37l-2.6,2.55h-1.7l1.82-2.55h2.48Z"/><path class="k" d="M138.23,382.51c2.46,0,3.57,1.47,3.31,4.04l-.05,.5h-2.39l.07-.67c.12-1.15-.3-1.58-1.1-1.58s-1.31,.44-1.42,1.58c-.33,3.31,4.54,3.92,4.08,8.52-.26,2.57-1.69,4.04-4.17,4.04s-3.62-1.47-3.36-4.04l.1-.99h2.39l-.12,1.15c-.12,1.15,.35,1.56,1.15,1.56s1.35-.41,1.47-1.56c.33-3.31-4.54-3.92-4.08-8.52,.26-2.57,1.67-4.04,4.13-4.04Z"/><path class="k" d="M152.25,387.13l-1.18,11.64h-2.27l1.62-16.07h3.17l1.62,9.62,.97-9.62h2.25l-1.62,16.07h-2.59l-1.97-11.64Z"/><path class="k" d="M168.55,398.76h-2.55l-.14-2.91h-3.1l-.73,2.91h-2.32l4.2-16.07h3.7l.95,16.07Zm-5.25-5.1h2.43l-.4-8.13-2.04,8.13Z"/><path class="k" d="M171.01,396.47c.27,.02,.6,.02,.87,.02,.8,0,1.48-.3,1.6-1.54l1.24-12.26h2.53l-1.22,12.07c-.33,3.21-2.13,4.04-4.04,4.04-.46,0-.8,0-1.21-.05l.23-2.3Z"/><path class="k" d="M180.71,382.7h4c2.53,0,3.62,1.4,3.37,3.97l-.82,8.13c-.26,2.57-1.64,3.97-4.17,3.97h-4l1.62-16.07Zm2.29,2.29l-1.16,11.48h1.42c.8,0,1.33-.41,1.44-1.56l.84-8.36c.12-1.15-.33-1.56-1.13-1.56h-1.42Z"/><path class="k" d="M193.66,389.47h3.47l-.23,2.29h-3.47l-.48,4.71h4.36l-.23,2.3h-6.89l1.62-16.07h6.89l-.23,2.29h-4.36l-.45,4.48Z"/><path class="k" d="M201.28,382.7h7.81l-.23,2.29h-2.64l-1.39,13.77h-2.53l1.39-13.77h-2.64l.23-2.29Z"/><path class="k" d="M213.78,389.47h3.47l-.23,2.29h-3.47l-.48,4.71h4.36l-.23,2.3h-6.89l1.62-16.07h6.89l-.23,2.29h-4.36l-.45,4.48Z"/><path class="k" d="M229.28,389.47h3.47l-.23,2.29h-3.47l-.48,4.71h4.36l-.23,2.3h-6.89l1.62-16.07h6.89l-.23,2.29h-4.36l-.45,4.48Z"/><path class="k" d="M246.06,382.7l-3.43,7.8,1.99,8.26h-2.66l-1.42-6.36-2.73,6.36h-2.37l3.66-8.26-1.85-7.8h2.62l1.31,5.92,2.55-5.92h2.34Z"/><path class="k" d="M251.58,392.36l-.93,1.47-.5,4.93h-2.53l1.62-16.07h2.53l-.71,7,4.02-7h2.53l-4.24,7.16,2.61,8.91h-2.59l-1.81-6.4Z"/><path class="k" d="M267.05,398.76h-2.55l-.14-2.91h-3.1l-.73,2.91h-2.32l4.2-16.07h3.7l.95,16.07Zm-5.25-5.1h2.43l-.4-8.13-2.04,8.13Z"/><path class="k" d="M273.5,395.8l3.25-13.11h2.32l-4.1,16.07h-3.77l-.86-16.07h2.55l.6,13.11Z"/><path class="k" d="M287.97,398.76h-2.55l-.14-2.91h-3.1l-.73,2.91h-2.32l4.2-16.07h3.7l.95,16.07Zm-5.25-5.1h2.43l-.4-8.13-2.04,8.13Zm5.49-14.37l-2.6,2.55h-1.7l1.82-2.55h2.48Z"/><path class="k" d="M290.9,382.7h7.81l-.23,2.29h-2.64l-1.39,13.77h-2.53l1.39-13.77h-2.64l.23-2.29Z"/><path class="k" d="M300.96,386.55c.26-2.57,1.76-4.04,4.24-4.04s3.69,1.47,3.43,4.04l-.84,8.36c-.26,2.57-1.76,4.04-4.24,4.04s-3.69-1.47-3.43-4.04l.84-8.36Zm1.67,8.52c-.12,1.15,.34,1.58,1.15,1.58s1.35-.44,1.47-1.58l.88-8.68c.12-1.15-.34-1.58-1.15-1.58s-1.35,.44-1.47,1.58l-.88,8.68Z"/><path class="k" d="M316.05,398.76c-.1-.41-.16-.67-.03-1.97l.25-2.53c.15-1.49-.3-2.04-1.45-2.04h-.87l-.66,6.54h-2.53l1.62-16.07h3.81c2.62,0,3.62,1.22,3.37,3.7l-.13,1.26c-.17,1.65-.8,2.73-1.98,3.26,1.21,.53,1.5,1.75,1.33,3.42l-.25,2.48c-.08,.78-.12,1.35,.08,1.95h-2.57Zm-1.36-13.77l-.5,4.93h.99c.94,0,1.56-.41,1.69-1.7l.16-1.58c.12-1.15-.22-1.65-1.12-1.65h-1.22Z"/><path class="k" d="M324.42,393.44l-2.11-10.74h2.64l1.19,7.32,2.67-7.32h2.41l-4.28,10.74-.54,5.33h-2.53l.54-5.33Z"/><path class="k" d="M346.37,386.67l-.21,2.09c-.26,2.57-1.64,3.97-4.17,3.97h-1.19l-.61,6.04h-2.53l1.62-16.07h3.72c2.53,0,3.62,1.4,3.37,3.97Zm-4.79-1.68l-.55,5.44h1.19c.8,0,1.28-.37,1.39-1.51l.24-2.41c.12-1.15-.28-1.51-1.09-1.51h-1.19Z"/><path class="k" d="M353.34,398.76c-.1-.41-.16-.67-.03-1.97l.25-2.53c.15-1.49-.3-2.04-1.45-2.04h-.87l-.66,6.54h-2.53l1.62-16.07h3.81c2.62,0,3.62,1.22,3.37,3.7l-.13,1.26c-.17,1.65-.8,2.73-1.98,3.26,1.21,.53,1.5,1.75,1.33,3.42l-.25,2.48c-.08,.78-.12,1.35,.08,1.95h-2.57Zm-1.36-13.77l-.5,4.93h.99c.94,0,1.56-.41,1.69-1.7l.16-1.58c.12-1.15-.22-1.65-1.12-1.65h-1.22Z"/><path class="k" d="M360.06,386.55c.26-2.57,1.76-4.04,4.24-4.04s3.69,1.47,3.43,4.04l-.84,8.36c-.26,2.57-1.76,4.04-4.24,4.04s-3.69-1.47-3.43-4.04l.84-8.36Zm1.67,8.52c-.12,1.15,.34,1.58,1.15,1.58s1.35-.44,1.47-1.58l.88-8.68c.12-1.15-.34-1.58-1.15-1.58s-1.35,.44-1.47,1.58l-.88,8.68Z"/><path class="k" d="M379.29,395.8l3.25-13.11h2.32l-4.1,16.07h-3.77l-.86-16.07h2.55l.6,13.11Z"/><path class="k" d="M393.75,398.76h-2.55l-.14-2.91h-3.1l-.73,2.91h-2.32l4.2-16.07h3.7l.95,16.07Zm-5.25-5.1h2.43l-.4-8.13-2.04,8.13Zm5.49-14.37l-2.6,2.55h-1.7l1.82-2.55h2.48Z"/><path class="k" d="M401.71,382.51c2.46,0,3.57,1.47,3.31,4.04l-.05,.5h-2.39l.07-.67c.12-1.15-.3-1.58-1.1-1.58s-1.31,.44-1.42,1.58c-.33,3.31,4.54,3.92,4.08,8.52-.26,2.57-1.69,4.04-4.17,4.04s-3.62-1.47-3.36-4.04l.1-.99h2.39l-.12,1.15c-.12,1.15,.35,1.56,1.15,1.56s1.35-.41,1.47-1.56c.33-3.31-4.54-3.92-4.08-8.52,.26-2.57,1.67-4.04,4.13-4.04Z"/></g></g></g></g></svg>