<?xml version="1.0" encoding="UTF-8"?><svg id="b" xmlns="http://www.w3.org/2000/svg" viewBox="0 0 315.03 298.75"><defs><style>.d,.e{fill:#fff;}.e,.f,.g{fill-rule:evenodd;}.h,.f{fill:#df9130;}</style></defs><g id="c"><g><g><path d="M209.13,196.39c-38.98,0-70.7-31.72-70.7-70.7s31.72-70.7,70.7-70.7,70.7,31.72,70.7,70.7-31.72,70.7-70.7,70.7Zm0-126.61c-30.83,0-55.91,25.08-55.91,55.91s25.08,55.91,55.91,55.91,55.91-25.08,55.91-55.91-25.08-55.91-55.91-55.91Z"/><g><path class="f" d="M44.33,86.99l25.25-4.68,20.52-3.8-19.8,1.39,10.13-33.73,7.56-.28L129.17,0h4.89l15.22,11.24,17.39-3.88,3.08,4.7-2.14,7.64,28.49,32.2,3.72,1.28c4.7,5.46,8.74,9.77,13.28,15.4,1.47,1.83,1.24,3.52,.12,5.39l-3.12,5.2,2.51,2.33c7.73,7.17,18.75,24.25,21.25,35.42l13.73,61.28h-4.03l-25.86,9.52-8.67-9.52-.79-6.83,1.32-4.46-10.53-42.18-57.1-56.31,1.66-2,2.23-2.68,6.12-7.36-11.48,10.58-26.31,24.25v43.96l4.62,4.15v21.28l-2.31,1.08,1.8,5.59-4.43,.28-5.65-5.7,1.15,5.99-5.19,.33-4.76-6.26,1.32,6.47-4.54,.29-5.29-6.01,1.78,6.23-4.5,.28-5.22-6.57,1.47,6.8-4.1,.26-5.55-5.88,1.31,6.14-3.76,.24c-14.93-20.14-24.17-30.61-36.07-54.66-4.54-9.17-1.7-26.71,8.1-28.53"/><path class="e" d="M204.33,78.6s17.04,17.98,22.65,38.78c5.6,20.8,13.1,59.05,13.1,59.05l4.75-3.25-11.75-53.25-4.25-12.75-10.96-16.25-13.54-12.33Z"/><polygon class="e" points="164.28 29.95 161.67 38.1 207.17 78.6 209.13 70.77 164.28 29.95"/><polygon class="e" points="129.33 2.43 129.98 .62 134.26 .99 149.65 12.19 147.33 14.49 129.33 2.43"/><polygon class="e" points="99.99 44.89 87.75 74.98 95.19 44.31 99.99 44.89"/><polygon class="d" points="132.13 14.43 120.83 11.41 86.83 48.49 92.58 48.49 108.08 33.31 123.46 16.31 132.13 14.43"/><path class="d" d="M104.28,80.74l51.4-60.12,8.61-10.19-8.61,2.42s-37.15,42.58-37.66,43.41c-.51,.83-18.03,21.37-18.03,21.37l4.29,3.11Z"/><path class="d" d="M93.6,77.87s-6.69,8.31-5.86,17.31c.84,9,10.95,38.17,28.02,61.71l-8.93-2.21-23.62-44.45-2.38-23.57,12.77-8.8Z"/><path class="g" d="M44.33,86.99l25.25-4.68,20.52-3.8-19.8,1.39h0l10.13-33.73,7.56-.28L129.17,0h4.89l15.22,11.24,17.39-3.88,3.08,4.7-2.14,7.64,28.49,32.2,3.72,1.28c4.7,5.46,8.74,9.77,13.28,15.4,1.47,1.83,1.24,3.52,.12,5.39l-3.11,5.2,2.51,2.33c7.73,7.17,18.75,24.25,21.25,35.42l13.73,61.28h-4.03l-12.69-58.63c-2.62-12.1-12.43-26.39-20.2-33.52l-49.1-45.06-3.43,10.42,39.41,36.18c9.87,9.06,20.33,21.94,23.2,35.54l11.59,55.07-14.63,9.52-8.67-9.52-.79-6.83,1.32-4.46-10.54-42.18-57.1-56.31,1.66-2,57.49,55.44-55.26-58.12,6.12-7.36-11.48,10.58-26.31,24.25v43.96l4.62,4.15v21.28l-2.31,1.08,1.8,5.59-4.43,.28-5.65-5.7,1.15,5.99-5.19,.33-4.76-6.26,1.32,6.47-4.54,.29-5.29-6.01,1.78,6.23-4.5,.28-5.22-6.57,1.47,6.8-4.1,.26-5.55-5.88,1.31,6.14-3.76,.24c-14.93-20.14-24.17-30.61-36.07-54.66-4.54-9.17-1.7-26.71,8.1-28.53M121.17,12.19l-31.15,33.64,1.43-.05,29.51-31.87,5.19,2.25-4.98-3.97Zm-16.89,66.28l2.24,1.61,49.16-59.46-51.4,57.85Zm-3.24-31.95l-4.46-.94-8.83,29.39,5.72-3.92,11.55-18.27-3.99-6.27Zm-60.17,63.71c.18-5.85,1.83-10.81,5.11-14.79l24.97-8.78-27.65,5.75c-3.19,4.48-4.41,12.4-2.42,17.81M130.03,1.32l4.07,1.58,13.36,10.26,1.17-1.09-14.2-10.3-4.4-.45Zm-27.32,76.03l11.45,8.22,41.65-40.05,10-34.11-7.26,2.36-55.85,63.57Zm-9.1,.52c-20.35,11.05-5.22,42.96,22.16,79.03l-.03-14.75-5.09-4.84v-49.71l-5.78-3.3-4.73,39.31,1.98-40.88-8.52-4.86Zm70.49-45.56l-.93,3.33,27.78,25.77,17.14,15.79-43.99-44.88Zm-61.56,13.06l4.7,7.29-12.05,19.15,40.75-47.17-8.58-6.66-24.82,27.38Z"/></g><path d="M249.17,164.67c-10.16,10.44-24.36,16.93-40.04,16.93-4.9,0-9.65-.64-14.18-1.82-.14,.62-.26,1.24-.37,1.86-.75,4.33-.82,8.71-.72,13.09,4.92,1.09,10.03,1.67,15.28,1.67,20.03,0,38.13-8.37,51.01-21.8-3.1-3.89-6.68-7.37-10.97-9.92Z"/></g><g><g><path d="M130.18,245.29l-2.75,4.35-1.48,14.62h-7.48l4.81-47.59h7.48l-2.1,20.73,11.89-20.73h7.48l-12.55,21.21,7.74,26.38h-7.68l-5.36-18.97Z"/><path d="M149.39,216.67h11.83c7.48,0,10.73,4.15,9.96,11.76l-2.43,24.07c-.77,7.62-4.86,11.76-12.34,11.76h-11.83l4.81-47.59Zm6.79,6.8l-3.44,33.99h4.22c2.38,0,3.93-1.22,4.27-4.62l2.5-24.75c.34-3.4-.96-4.62-3.34-4.62h-4.22Z"/><path d="M180.54,236.72h10.27l-.69,6.8h-10.27l-1.41,13.94h12.92l-.69,6.8h-20.4l4.81-47.59h20.4l-.69,6.8h-12.92l-1.34,13.26Z"/></g><g><path class="h" d="M5.37,278.57l-1.25,12.39c-.12,1.15,.35,1.56,1.15,1.56s1.35-.41,1.47-1.56l1.25-12.39h2.39l-1.24,12.23c-.26,2.57-1.69,4.04-4.17,4.04s-3.62-1.47-3.36-4.04l1.24-12.23h2.53Z"/><path class="h" d="M20.95,283l-1.18,11.64h-2.27l1.62-16.07h3.17l1.62,9.62,.97-9.62h2.25l-1.62,16.07h-2.59l-1.97-11.64Z"/><path class="h" d="M37.25,294.64h-2.55l-.14-2.91h-3.1l-.73,2.91h-2.32l4.2-16.07h3.7l.95,16.07Zm-5.25-5.1h2.43l-.4-8.13-2.04,8.13Zm5.49-14.37l-2.6,2.55h-1.7l1.82-2.55h2.48Z"/><path class="h" d="M45.2,278.39c2.46,0,3.57,1.47,3.31,4.04l-.05,.5h-2.39l.07-.67c.12-1.15-.3-1.58-1.1-1.58s-1.31,.44-1.42,1.58c-.33,3.31,4.54,3.92,4.08,8.52-.26,2.57-1.69,4.04-4.17,4.04s-3.62-1.47-3.36-4.04l.1-.99h2.39l-.12,1.15c-.12,1.15,.35,1.56,1.15,1.56s1.35-.41,1.47-1.56c.33-3.31-4.54-3.92-4.08-8.52,.26-2.57,1.67-4.04,4.13-4.04Z"/><path class="h" d="M59.22,283l-1.18,11.64h-2.27l1.62-16.07h3.17l1.62,9.62,.97-9.62h2.25l-1.62,16.07h-2.59l-1.97-11.64Z"/><path class="h" d="M75.52,294.64h-2.55l-.14-2.91h-3.1l-.73,2.91h-2.32l4.2-16.07h3.7l.95,16.07Zm-5.25-5.1h2.43l-.4-8.13-2.04,8.13Z"/><path class="h" d="M77.98,292.34c.27,.02,.6,.02,.87,.02,.8,0,1.48-.3,1.6-1.54l1.24-12.26h2.53l-1.22,12.07c-.33,3.21-2.13,4.04-4.04,4.04-.46,0-.8,0-1.21-.05l.23-2.3Z"/><path class="h" d="M87.69,278.57h4c2.53,0,3.62,1.4,3.37,3.97l-.82,8.13c-.26,2.57-1.64,3.97-4.17,3.97h-4l1.62-16.07Zm2.29,2.29l-1.16,11.48h1.42c.8,0,1.33-.41,1.44-1.56l.84-8.36c.12-1.15-.33-1.56-1.13-1.56h-1.42Z"/><path class="h" d="M100.64,285.34h3.47l-.23,2.29h-3.47l-.48,4.71h4.36l-.23,2.3h-6.89l1.62-16.07h6.89l-.23,2.29h-4.36l-.45,4.48Z"/><path class="h" d="M108.26,278.57h7.81l-.23,2.29h-2.64l-1.39,13.77h-2.53l1.39-13.77h-2.64l.23-2.29Z"/><path class="h" d="M120.75,285.34h3.47l-.23,2.29h-3.47l-.48,4.71h4.36l-.23,2.3h-6.89l1.62-16.07h6.89l-.23,2.29h-4.36l-.45,4.48Z"/><path class="h" d="M136.25,285.34h3.47l-.23,2.29h-3.47l-.48,4.71h4.36l-.23,2.3h-6.89l1.62-16.07h6.89l-.23,2.29h-4.36l-.45,4.48Z"/><path class="h" d="M153.03,278.57l-3.43,7.8,1.99,8.26h-2.66l-1.42-6.36-2.73,6.36h-2.37l3.66-8.26-1.85-7.8h2.62l1.31,5.92,2.55-5.92h2.34Z"/><path class="h" d="M158.55,288.24l-.93,1.47-.5,4.93h-2.53l1.62-16.07h2.53l-.71,7,4.02-7h2.53l-4.24,7.16,2.61,8.91h-2.59l-1.81-6.4Z"/><path class="h" d="M174.03,294.64h-2.55l-.14-2.91h-3.1l-.73,2.91h-2.32l4.2-16.07h3.7l.95,16.07Zm-5.25-5.1h2.43l-.4-8.13-2.04,8.13Z"/><path class="h" d="M180.48,291.68l3.25-13.11h2.32l-4.1,16.07h-3.77l-.86-16.07h2.55l.6,13.11Z"/><path class="h" d="M194.94,294.64h-2.55l-.14-2.91h-3.1l-.73,2.91h-2.32l4.2-16.07h3.7l.95,16.07Zm-5.25-5.1h2.43l-.4-8.13-2.04,8.13Zm5.49-14.37l-2.6,2.55h-1.7l1.82-2.55h2.48Z"/><path class="h" d="M197.88,278.57h7.81l-.23,2.29h-2.64l-1.39,13.77h-2.53l1.39-13.77h-2.64l.23-2.29Z"/><path class="h" d="M207.93,282.43c.26-2.57,1.76-4.04,4.24-4.04s3.69,1.47,3.43,4.04l-.84,8.36c-.26,2.57-1.76,4.04-4.24,4.04s-3.69-1.47-3.43-4.04l.84-8.36Zm1.67,8.52c-.12,1.15,.34,1.58,1.15,1.58s1.35-.44,1.47-1.58l.88-8.68c.12-1.15-.34-1.58-1.15-1.58s-1.35,.44-1.47,1.58l-.88,8.68Z"/><path class="h" d="M223.03,294.64c-.1-.41-.16-.67-.03-1.97l.25-2.53c.15-1.49-.3-2.04-1.45-2.04h-.87l-.66,6.54h-2.53l1.62-16.07h3.81c2.62,0,3.62,1.22,3.37,3.7l-.13,1.26c-.17,1.65-.8,2.73-1.98,3.26,1.21,.53,1.5,1.75,1.33,3.42l-.25,2.48c-.08,.78-.12,1.35,.08,1.95h-2.57Zm-1.36-13.77l-.5,4.93h.99c.94,0,1.56-.41,1.69-1.7l.16-1.58c.12-1.15-.22-1.65-1.12-1.65h-1.22Z"/><path class="h" d="M231.39,289.32l-2.11-10.74h2.64l1.19,7.32,2.67-7.32h2.41l-4.28,10.74-.54,5.33h-2.53l.54-5.33Z"/><path class="h" d="M253.34,282.54l-.21,2.09c-.26,2.57-1.64,3.97-4.17,3.97h-1.19l-.61,6.04h-2.53l1.62-16.07h3.72c2.53,0,3.62,1.4,3.37,3.97Zm-4.79-1.68l-.55,5.44h1.19c.8,0,1.28-.37,1.39-1.51l.24-2.41c.12-1.15-.28-1.51-1.09-1.51h-1.19Z"/><path class="h" d="M260.31,294.64c-.1-.41-.16-.67-.03-1.97l.25-2.53c.15-1.49-.3-2.04-1.45-2.04h-.87l-.66,6.54h-2.53l1.62-16.07h3.81c2.62,0,3.62,1.22,3.37,3.7l-.13,1.26c-.17,1.65-.8,2.73-1.98,3.26,1.21,.53,1.5,1.75,1.33,3.42l-.25,2.48c-.08,.78-.12,1.35,.08,1.95h-2.57Zm-1.36-13.77l-.5,4.93h.99c.94,0,1.56-.41,1.69-1.7l.16-1.58c.12-1.15-.22-1.65-1.12-1.65h-1.22Z"/><path class="h" d="M267.04,282.43c.26-2.57,1.76-4.04,4.24-4.04s3.69,1.47,3.43,4.04l-.84,8.36c-.26,2.57-1.76,4.04-4.24,4.04s-3.69-1.47-3.43-4.04l.84-8.36Zm1.67,8.52c-.12,1.15,.34,1.58,1.15,1.58s1.35-.44,1.47-1.58l.88-8.68c.12-1.15-.34-1.58-1.15-1.58s-1.35,.44-1.47,1.58l-.88,8.68Z"/><path class="h" d="M286.26,291.68l3.25-13.11h2.32l-4.1,16.07h-3.77l-.86-16.07h2.55l.6,13.11Z"/><path class="h" d="M300.73,294.64h-2.55l-.14-2.91h-3.1l-.73,2.91h-2.32l4.2-16.07h3.7l.95,16.07Zm-5.25-5.1h2.43l-.4-8.13-2.04,8.13Zm5.49-14.37l-2.6,2.55h-1.7l1.82-2.55h2.48Z"/><path class="h" d="M308.68,278.39c2.46,0,3.57,1.47,3.31,4.04l-.05,.5h-2.39l.07-.67c.12-1.15-.3-1.58-1.1-1.58s-1.31,.44-1.42,1.58c-.33,3.31,4.54,3.92,4.08,8.52-.26,2.57-1.69,4.04-4.17,4.04s-3.62-1.47-3.36-4.04l.1-.99h2.39l-.12,1.15c-.12,1.15,.35,1.56,1.15,1.56s1.35-.41,1.47-1.56c.33-3.31-4.54-3.92-4.08-8.52,.26-2.57,1.67-4.04,4.13-4.04Z"/></g></g></g></g></svg>